<mxfile host="app.diagrams.net" modified="2023-11-23T04:12:49.024Z" agent="Mozilla/5.0 (Macintosh; Intel Mac OS X 10_15_7) AppleWebKit/537.36 (KHTML, like Gecko) Chrome/118.0.0.0 Safari/537.36" version="22.1.3" etag="0JElrZPdGgI0Y-s1FBmB" type="github">
  <diagram name="第 1 页" id="ZTxLwQjS0AlqHlBGh8bH">
    <mxGraphModel>
      <root>
        <mxCell id="0" />
        <mxCell id="1" parent="0" />
      </root>
    </mxGraphModel>
  </diagram>
</mxfile>
